<svg version="1.1" xmlns="http://www.w3.org/2000/svg" xmlns:xlink="http://www.w3.org/1999/xlink" width="319.7293" height="319.7293" viewBox="0,0,319.7293,319.7293"><g transform="translate(-80.13535,-20.13535)"><g data-paper-data="{&quot;isPaintingLayer&quot;:true}" fill-rule="nonzero" stroke-linejoin="miter" stroke-miterlimit="10" stroke-dasharray="" stroke-dashoffset="0" style="mix-blend-mode: normal"><path d="M80.13535,339.86465v-319.7293h319.7293v319.7293z" fill="none" stroke="#ff0000" stroke-width="0" stroke-linecap="butt"/><path d="M102,266c0,-16.2924 13.2076,-29.5 29.5,-29.5c16.2924,0 29.5,13.2076 29.5,29.5c0,16.2924 -29.5,48.5 -29.5,48.5c0,0 -29.5,-32.2076 -29.5,-48.5zM131.125,273.75c5.52284,0 10,-4.47715 10,-10c0,-5.52285 -4.47716,-10 -10,-10c-5.52285,0 -10,4.47715 -10,10c0,5.52285 4.47715,10 10,10z" fill="#1092f7" stroke="none" stroke-width="0" stroke-linecap="butt"/><path d="M320.5,72.36441c0,-12.97869 10.52131,-23.5 23.5,-23.5c12.97869,0 23.5,10.52131 23.5,23.5c0,12.97869 -23.5,38.63559 -23.5,38.63559c0,0 -23.5,-25.6569 -23.5,-38.63559zM343.70127,78.53814c4.39956,0 7.9661,-3.56654 7.9661,-7.9661c0,-4.39956 -3.56655,-7.9661 -7.9661,-7.9661c-4.39956,0 -7.9661,3.56655 -7.9661,7.9661c0,4.39956 3.56655,7.9661 7.9661,7.9661z" fill="#1092f7" stroke="none" stroke-width="0" stroke-linecap="butt"/><path d="M156,313.5c0,0 24.33676,1.87402 55.55494,1.05452" fill="none" stroke="#1092f7" stroke-width="5" stroke-linecap="round"/><path d="M231.49859,313.66986c15.85251,-1.00794 32.45216,-2.83839 47.91708,-5.98379" fill="none" stroke="#1092f7" stroke-width="5" stroke-linecap="round"/><path d="M298.48183,302.89219c16.75321,-5.16162 30.78821,-12.46142 38.98218,-22.71657" fill="none" stroke="#1092f7" stroke-width="5" stroke-linecap="round"/><path d="M345.04972,261.86677c0.00984,-0.09865 0.01929,-0.19747 0.02834,-0.29648c1.27189,-13.91465 -3.14062,-23.10988 -11.35762,-29.19276" fill="none" stroke="#1092f7" stroke-width="5" stroke-linecap="round"/><path d="M315.34476,224.47111c-9.86052,-2.39865 -21.50603,-3.3645 -33.91618,-3.76983" fill="none" stroke="#1092f7" stroke-width="5" stroke-linecap="round"/><path d="M261.54002,220.40079c-11.77385,-0.05277 -23.74063,-0.01782 -35.12998,-0.55372" fill="none" stroke="#1092f7" stroke-width="5" stroke-linecap="round"/><path d="M206.50798,218.09679c-13.00749,-1.83726 -24.38326,-5.19007 -32.6228,-11.34456" fill="none" stroke="#1092f7" stroke-width="5" stroke-linecap="round"/><path d="M162.17065,190.74133c-1.30979,-3.87996 -2.04234,-8.27029 -2.11874,-13.23845c-0.08854,-5.75771 1.26161,-10.97226 3.78559,-15.69484" fill="none" stroke="#1092f7" stroke-width="5" stroke-linecap="round"/><path d="M176.30835,147.76168c6.47303,-4.95868 14.5336,-9.13143 23.5381,-12.64272" fill="none" stroke="#1092f7" stroke-width="5" stroke-linecap="round"/><path d="M218.85526,128.95976c8.79249,-2.36881 17.98615,-4.28792 27.14015,-5.84259" fill="none" stroke="#1092f7" stroke-width="5" stroke-linecap="round"/><path d="M265.4956,120.29965c7.53799,-0.91371 14.81863,-1.60843 21.57133,-2.13648" fill="none" stroke="#1092f7" stroke-width="5" stroke-linecap="round"/><path d="M306.99992,116.95911c12.21199,-0.52295 20.00008,-0.45911 20.00008,-0.45911" fill="none" stroke="#1092f7" stroke-width="5" stroke-linecap="round"/></g></g></svg>