<svg version="1.1" xmlns="http://www.w3.org/2000/svg" xmlns:xlink="http://www.w3.org/1999/xlink" width="319.7293" height="319.7293" viewBox="0,0,319.7293,319.7293"><g transform="translate(-80.13535,-20.13535)"><g data-paper-data="{&quot;isPaintingLayer&quot;:true}" fill="none" fill-rule="nonzero" stroke-linejoin="miter" stroke-miterlimit="10" stroke-dasharray="" stroke-dashoffset="0" style="mix-blend-mode: normal"><path d="M80.13535,339.86465v-319.7293h319.7293v319.7293z" stroke="#ff0000" stroke-width="0" stroke-linecap="butt"/><path d="M167.76338,108.07448c2.75624,-7.01063 26.07076,-13.70976 26.07076,-13.70976c0,0 5.84237,-25.42522 13.44936,-28.73869c7.7677,-3.38347 32.68479,8.64346 32.68479,8.64346c0,0 24.86558,-15.7349 32.5231,-12.37198c7.8036,3.42707 13.86855,32.74559 13.86855,32.74559c0,0 23.23336,6.749 25.8754,13.52904c2.87551,7.37918 -9.26338,29.10102 -9.26338,29.10102c0,0 10.08006,24.15281 7.03749,31.36489c-3.34632,7.9321 -26.29099,14.27352 -26.29099,14.27352c0,0 -8.25307,22.97751 -15.47421,25.84371c-7.35963,2.92117 -28.27597,-8.47845 -28.27597,-8.47845c0,0 -22.83699,12.77176 -29.91694,10.05503c-6.96739,-2.67354 -12.23052,-26.22793 -12.23052,-26.22793c0,0 -23.60188,-5.66372 -27.00205,-13.2985c-3.54579,-7.96176 6.14584,-33.53228 6.14584,-33.53228c0,0 -12.06412,-21.91678 -9.20123,-29.19867z" stroke="#1092f7" stroke-width="10" stroke-linecap="butt"/><path d="M235.91155,216.3697c-6.60467,27.82623 -17.46227,72.04194 -19.33283,79.92282c-0.63016,2.65492 -2.22012,2.91982 -3.19084,1.17251c-2.41785,-4.35212 -12.66017,-22.78831 -12.66017,-22.78831c0,0 -23.04069,7.2594 -27.62597,8.70407c-1.52001,0.4789 -2.3993,-0.53935 -1.58691,-2.44846c2.88529,-6.78041 32.48582,-75.90063 32.48582,-75.90063" stroke="#1092f7" stroke-width="10" stroke-linecap="round"/><path d="M270.02076,209.5776c11.06747,26.00855 27.55241,64.74814 30.36372,71.35473c0.81239,1.90911 -0.0669,2.92736 -1.58691,2.44846c-4.58528,-1.44467 -27.62597,-8.70407 -27.62597,-8.70407c0,0 -10.24232,18.43619 -12.66017,22.78831c-0.97072,1.74731 -2.56068,1.48241 -3.19084,-1.17251c-2.24504,-9.45859 -15.62053,-65.81108 -21.59357,-90.97619" data-paper-data="{&quot;index&quot;:null}" stroke="#1092f7" stroke-width="10" stroke-linecap="round"/><path d="M270.13676,116.01246l-40.11234,40.11234l-20.16118,-20.16118" stroke="#1092f7" stroke-width="12.5" stroke-linecap="round"/></g></g></svg>