<svg version="1.1" xmlns="http://www.w3.org/2000/svg" xmlns:xlink="http://www.w3.org/1999/xlink" width="319.7293" height="319.7293" viewBox="0,0,319.7293,319.7293"><g transform="translate(-80.13535,-20.13535)"><g data-paper-data="{&quot;isPaintingLayer&quot;:true}" fill="none" fill-rule="nonzero" stroke-linejoin="miter" stroke-miterlimit="10" stroke-dasharray="" stroke-dashoffset="0" style="mix-blend-mode: normal"><path d="M80.13535,339.86465v-319.7293h319.7293v319.7293z" stroke="#ff0000" stroke-width="0" stroke-linecap="butt"/><path d="M289.64083,182.39224c0,34.15454 -11.66298,61.84227 -26.05,61.84227c-14.38702,0 -26.04999,-27.68772 -26.04999,-61.84226c0,-34.15454 11.66298,-61.84226 26.04999,-61.84226c14.38702,0 26.05,27.68773 26.05,61.84227z" stroke="#1092f7" stroke-width="10" stroke-linecap="butt"/><path d="M260.414,120.97355l-94.03412,27.7443c0,0 -10.24443,10.88757 -9.74227,31.98008c0.61642,25.89209 9.74227,35.3687 9.74227,35.3687l93.61055,27.7443" stroke="#1092f7" stroke-width="10" stroke-linecap="round"/><path d="M325.87259,102.17617l-27.14367,7.95118l9.78817,25.86874l-35.12912,12.1324" data-paper-data="{&quot;index&quot;:null}" stroke="#1092f7" stroke-width="10" stroke-linecap="round"/><path d="M359.38028,178.89224l-30.5,-9l-18.5,25l-38,-14" data-paper-data="{&quot;index&quot;:null}" stroke="#1092f7" stroke-width="10" stroke-linecap="round"/><path d="M330.40489,257.82383l-11.86387,-29.81994l-32.40557,16.57021l-10.74832,-30.48815" data-paper-data="{&quot;index&quot;:null}" stroke="#1092f7" stroke-width="10" stroke-linecap="round"/><path d="M180.96361,222.89224c0,0 -10.47155,21.04012 8.70273,27.18254c28.84175,9.23937 33.96394,-15.51587 33.96394,-15.51587" stroke="#1092f7" stroke-width="10" stroke-linecap="round"/></g></g></svg>