<svg version="1.1" xmlns="http://www.w3.org/2000/svg" xmlns:xlink="http://www.w3.org/1999/xlink" width="319.7293" height="319.7293" viewBox="0,0,319.7293,319.7293"><g transform="translate(-80.13535,-20.13535)"><g data-paper-data="{&quot;isPaintingLayer&quot;:true}" fill-rule="nonzero" stroke-linejoin="miter" stroke-miterlimit="10" stroke-dasharray="" stroke-dashoffset="0" style="mix-blend-mode: normal"><path d="M80.13535,180c0,-88.29081 71.57384,-159.86465 159.86465,-159.86465c88.29081,0 159.86465,71.57384 159.86465,159.86465c0,88.29081 -71.57384,159.86465 -159.86465,159.86465c-88.29081,0 -159.86465,-71.57384 -159.86465,-159.86465z" fill="none" stroke="none" stroke-width="0" stroke-linecap="butt"/><path d="M312.64336,154.94572c0,15.94617 0,95.87345 0,105.39738c0,2.06821 -1.15386,3.7084 -3.24484,3.7084c-18.97014,0 -126.85671,0 -138.24076,0c-2.16367,0 -3.80111,-1.45987 -3.80111,-3.33756c0,-9.13593 0,-89.74729 0,-105.76821c0,-1.77886 0.96777,-3.73281 2.67617,-5.44941c11.84469,-11.90152 58.11281,-59.62504 65.46523,-67.79534c2.08952,-2.32196 5.68831,-2.33976 7.72685,-0.0341c7.32622,8.2862 56.72453,57.55884 67.34961,68.40603c1.32813,1.3559 2.06885,3.09405 2.06885,4.87283z" fill="none" stroke="#ababab" stroke-width="30" stroke-linecap="round"/><path d="M251.48985,198.40091c0,-9.68121 7.84817,-17.52938 17.52938,-17.52938c9.68121,0 17.52938,7.84817 17.52938,17.52938c0,9.68121 -7.84817,17.52938 -17.52938,17.52938c-9.68121,0 -17.52938,-7.84817 -17.52938,-17.52938z" fill="#ababab" stroke="none" stroke-width="0" stroke-linecap="butt"/></g></g></svg>