<svg version="1.1" xmlns="http://www.w3.org/2000/svg" xmlns:xlink="http://www.w3.org/1999/xlink" width="319.7293" height="319.7293" viewBox="0,0,319.7293,319.7293"><g transform="translate(-80.13535,-20.13535)"><g data-paper-data="{&quot;isPaintingLayer&quot;:true}" fill="none" fill-rule="nonzero" stroke-linecap="butt" stroke-linejoin="miter" stroke-miterlimit="10" stroke-dasharray="" stroke-dashoffset="0" style="mix-blend-mode: normal"><path d="M80.13535,180c0,-88.29081 71.57384,-159.86465 159.86465,-159.86465c88.29081,0 159.86465,71.57384 159.86465,159.86465c0,88.29081 -71.57384,159.86465 -159.86465,159.86465c-88.29081,0 -159.86465,-71.57384 -159.86465,-159.86465z" stroke="none" stroke-width="0"/><path d="M196.07428,264.75c0,0 -3.73928,-87.85352 43.92676,-87.85352c48.46182,0 43.92676,87.85352 43.92676,87.85352z" stroke="#ababab" stroke-width="30"/><path d="M200.37146,134.87958c0,-21.8868 17.74277,-39.62958 39.62958,-39.62958c21.8868,0 39.62958,17.74277 39.62958,39.62958c0,21.88681 -17.74277,39.62958 -39.62958,39.62958c-21.8868,0 -39.62958,-17.74276 -39.62958,-39.62958z" stroke="#ababab" stroke-width="30"/></g></g></svg>