<svg version="1.1" xmlns="http://www.w3.org/2000/svg" xmlns:xlink="http://www.w3.org/1999/xlink" width="319.7293" height="319.7293" viewBox="0,0,319.7293,319.7293"><g transform="translate(-80.13535,-20.13535)"><g data-paper-data="{&quot;isPaintingLayer&quot;:true}" fill-rule="nonzero" stroke-linecap="butt" stroke-linejoin="miter" stroke-miterlimit="10" stroke-dasharray="" stroke-dashoffset="0" style="mix-blend-mode: normal"><path d="M80.13535,180c0,-88.29081 71.57384,-159.86465 159.86465,-159.86465c88.29081,0 159.86465,71.57384 159.86465,159.86465c0,88.29081 -71.57384,159.86465 -159.86465,159.86465c-88.29081,0 -159.86465,-71.57384 -159.86465,-159.86465z" fill="none" stroke="none" stroke-width="0"/><path d="M220.68797,165.47458c0,-10.66574 8.64629,-19.31203 19.31203,-19.31203c10.66574,0 19.31203,8.64629 19.31203,19.31203c0,10.66574 -8.64629,19.31203 -19.31203,19.31203c-10.66574,0 -19.31203,-8.64629 -19.31203,-19.31203z" fill="#ababab" stroke="none" stroke-width="0"/><path d="M175,161.27119c0,-35.89851 29.10149,-65 65,-65c35.89851,0 65,29.10149 65,65c0,35.89851 -65,102.45763 -65,102.45763c0,0 -65,-66.55912 -65,-102.45763z" fill="none" stroke="#ababab" stroke-width="30"/></g></g></svg>