<svg version="1.1" xmlns="http://www.w3.org/2000/svg" xmlns:xlink="http://www.w3.org/1999/xlink" width="319.7293" height="319.7293" viewBox="0,0,319.7293,319.7293"><g transform="translate(-80.13535,-20.13535)"><g data-paper-data="{&quot;isPaintingLayer&quot;:true}" fill="none" fill-rule="nonzero" stroke-linejoin="miter" stroke-miterlimit="10" stroke-dasharray="" stroke-dashoffset="0" style="mix-blend-mode: normal"><path d="M80.13535,180c0,-88.29081 71.57384,-159.86465 159.86465,-159.86465c88.29081,0 159.86465,71.57384 159.86465,159.86465c0,88.29081 -71.57384,159.86465 -159.86465,159.86465c-88.29081,0 -159.86465,-71.57384 -159.86465,-159.86465z" stroke="none" stroke-width="0" stroke-linecap="butt"/><path d="M162.78,221.84c0,-8.6386 0,-64.89841 0,-81.2c0,-2.78681 1.52257,-4.98419 4.00151,-5.85879c7.37984,-2.6037 23.23563,-7.7812 32.62849,-7.7812c13.26244,0 40.92,9.24 40.92,9.24c0,0 29.72026,-9.24 43.23,-9.24c9.3663,0 24.79352,5.70407 30.9755,8.14884c1.68614,0.66682 2.68451,2.36806 2.68451,4.61116c0,14.83386 0,71.92234 0,81.4c0,2.60481 -1.35802,4.33488 -3.60234,3.56085c-7.35465,-2.53651 -24.22712,-7.96085 -34.01766,-7.96085c-13.27301,0 -40.59,9.24 -40.59,9.24c0,0 -26.74643,-9.24 -39.93,-9.24c-9.31297,0 -25.69881,5.43734 -32.82589,7.96995c-2.16374,0.76889 -3.47411,-0.71682 -3.47411,-2.88995z" stroke="#ababab" stroke-width="30" stroke-linecap="butt"/><path d="M240,137.12v88" stroke="#ababab" stroke-width="30" stroke-linecap="round"/></g></g></svg>