<svg version="1.1" xmlns="http://www.w3.org/2000/svg" xmlns:xlink="http://www.w3.org/1999/xlink" width="319.7293" height="319.7293" viewBox="0,0,319.7293,319.7293"><g transform="translate(-80.13535,-20.13535)"><g data-paper-data="{&quot;isPaintingLayer&quot;:true}" fill-rule="nonzero" stroke-linejoin="miter" stroke-miterlimit="10" stroke-dasharray="" stroke-dashoffset="0" style="mix-blend-mode: normal"><path d="M80.13535,180c0,-88.29081 71.57384,-159.86465 159.86465,-159.86465c88.29081,0 159.86465,71.57384 159.86465,159.86465c0,88.29081 -71.57384,159.86465 -159.86465,159.86465c-88.29081,0 -159.86465,-71.57384 -159.86465,-159.86465z" fill="none" stroke="none" stroke-width="0" stroke-linecap="butt"/><path d="M293.13392,273.12597c2.43774,-13.77853 17.10203,-96.6636 21.86973,-123.61151c0.94089,-5.31807 -1.67526,-8.45764 -5.50365,-8.45764c-12.47199,0 -109.28808,0 -138,0c-5.05587,0 -7.50599,2.7922 -6.66002,7.57377c4.66352,26.35903 20.02296,113.17324 22.28343,125.94985c0.54531,3.08216 3.70884,5.56728 6.37659,5.56728c10.09026,0 72.82948,0 92.5,0c3.71314,0 6.4609,-3.21771 7.13392,-7.02175z" fill="none" stroke="#1092f7" stroke-width="25" stroke-linecap="round"/><path d="M213.25,179.35228l8.5,62.5" fill="none" stroke="#1092f7" stroke-width="25" stroke-linecap="round"/><path d="M266.75,179.35228l-8.5,62.5" data-paper-data="{&quot;index&quot;:null}" fill="none" stroke="#1092f7" stroke-width="25" stroke-linecap="round"/><path d="M164.5,107.60228h151" fill="none" stroke="#1092f7" stroke-width="25" stroke-linecap="round"/><path d="M224.25,95.60228c0,-8.69849 7.05151,-15.75 15.75,-15.75c8.69849,0 15.75,7.05151 15.75,15.75c0,8.69849 -7.05151,15.75 -15.75,15.75c-8.69849,0 -15.75,-7.05151 -15.75,-15.75z" fill="#1092f7" stroke="none" stroke-width="0" stroke-linecap="butt"/></g></g></svg>