<svg version="1.1" xmlns="http://www.w3.org/2000/svg" xmlns:xlink="http://www.w3.org/1999/xlink" width="319.7293" height="319.7293" viewBox="0,0,319.7293,319.7293"><g transform="translate(-80.13535,-20.13535)"><g data-paper-data="{&quot;isPaintingLayer&quot;:true}" fill-rule="nonzero" stroke-linejoin="miter" stroke-miterlimit="10" stroke-dasharray="" stroke-dashoffset="0" style="mix-blend-mode: normal"><path d="M80.13535,180c0,-88.29081 71.57384,-159.86465 159.86465,-159.86465c88.29081,0 159.86465,71.57384 159.86465,159.86465c0,88.29081 -71.57384,159.86465 -159.86465,159.86465c-88.29081,0 -159.86465,-71.57384 -159.86465,-159.86465z" fill="none" stroke="none" stroke-width="0" stroke-linecap="butt"/><path d="M269.90162,293.21642c-19.53262,-2.32513 -81.832,-9.74114 -91.85152,-10.93384c-2.64905,-0.31534 -5.49665,-3.15698 -5.67381,-6.28199c-0.73438,-12.95423 -5.72438,-100.97536 -7.23947,-127.70085c-0.27484,-4.84804 2.48815,-7.33106 7.50858,-6.73343c28.51063,3.39386 124.64798,14.83788 137.03253,16.31211c3.80155,0.45253 6.02825,3.87933 4.46534,9.0489c-7.91962,26.19543 -32.27843,106.76605 -36.32775,120.15983c-1.11795,3.69782 -4.2268,6.56817 -7.9139,6.12927z" fill="none" stroke="#1092f7" stroke-width="25" stroke-linecap="round"/><path d="M210.62872,247.59487l-1.05268,-63.06657" fill="none" stroke="#1092f7" stroke-width="25" stroke-linecap="round"/><path d="M262.70097,190.8522l-15.82814,61.0571" data-paper-data="{&quot;index&quot;:null}" fill="none" stroke="#1092f7" stroke-width="25" stroke-linecap="round"/><path d="M167.57326,110.79113l147.30864,-33.18381" fill="none" stroke="#1092f7" stroke-width="25" stroke-linecap="round"/><path d="M223.22548,85.95381c-1.91158,-8.48585 3.4179,-16.91462 11.90375,-18.8262c8.48585,-1.91158 16.91462,3.4179 18.8262,11.90375c1.91158,8.48585 -3.4179,16.91462 -11.90375,18.8262c-8.48585,1.91158 -16.91462,-3.4179 -18.8262,-11.90375z" fill="#1092f7" stroke="none" stroke-width="0" stroke-linecap="butt"/></g></g></svg>