<svg version="1.1" xmlns="http://www.w3.org/2000/svg" xmlns:xlink="http://www.w3.org/1999/xlink" width="319.7293" height="319.7293" viewBox="0,0,319.7293,319.7293"><g transform="translate(-80.13535,-20.13535)"><g data-paper-data="{&quot;isPaintingLayer&quot;:true}" fill="none" fill-rule="nonzero" stroke-linecap="butt" stroke-linejoin="miter" stroke-miterlimit="10" stroke-dasharray="" stroke-dashoffset="0" style="mix-blend-mode: normal"><path d="M80.13535,339.86465v-319.7293h319.7293v319.7293z" stroke="#ff0000" stroke-width="0"/><g stroke="#1092f7"><path d="M147.9625,114.5c0,-11.34255 9.19495,-20.5375 20.5375,-20.5375c11.34255,0 20.5375,9.19495 20.5375,20.5375c0,11.34255 -9.19495,20.5375 -20.5375,20.5375c-11.34255,0 -20.5375,-9.19495 -20.5375,-20.5375z" stroke-width="7.5"/><path d="M204.275,114.5c0,-4.75655 3.85595,-8.6125 8.6125,-8.6125c4.75655,0 8.6125,3.85595 8.6125,8.6125c0,4.75655 -3.85595,8.6125 -8.6125,8.6125c-4.75655,0 -8.6125,-3.85595 -8.6125,-8.6125z" stroke-width="5"/><path d="M115.5,114.5c0,-4.75655 3.85595,-8.6125 8.6125,-8.6125c4.75655,0 8.6125,3.85595 8.6125,8.6125c0,4.75655 -3.85595,8.6125 -8.6125,8.6125c-4.75655,0 -8.6125,-3.85595 -8.6125,-8.6125z" stroke-width="5"/><path d="M168.5,78.725c-4.75655,0 -8.6125,-3.85595 -8.6125,-8.6125c0,-4.75655 3.85595,-8.6125 8.6125,-8.6125c4.75655,0 8.6125,3.85595 8.6125,8.6125c0,4.75655 -3.85595,8.6125 -8.6125,8.6125z" stroke-width="5"/><path d="M168.5,167.5c-4.75655,0 -8.6125,-3.85595 -8.6125,-8.6125c0,-4.75655 3.85595,-8.6125 8.6125,-8.6125c4.75655,0 8.6125,3.85595 8.6125,8.6125c0,4.75655 -3.85595,8.6125 -8.6125,8.6125z" stroke-width="5"/><path d="M193.79675,89.20326c-3.36339,-3.36339 -3.36339,-8.81653 0,-12.17991c3.36339,-3.36339 8.81653,-3.36339 12.17992,0c3.36339,3.36339 3.36339,8.81652 0,12.17991c-3.36339,3.36339 -8.81653,3.36339 -12.17992,0z" stroke-width="5"/><path d="M131.02334,151.97666c-3.36339,-3.36339 -3.36339,-8.81653 0,-12.17992c3.36339,-3.36339 8.81653,-3.36339 12.17992,0c3.36339,3.36339 3.36339,8.81653 0,12.17992c-3.36339,3.36339 -8.81653,3.36339 -12.17992,0z" stroke-width="5"/><path d="M193.79675,139.79674c3.36339,-3.36339 8.81653,-3.36339 12.17992,0c3.36339,3.36339 3.36339,8.81653 0,12.17992c-3.36339,3.36339 -8.81653,3.36339 -12.17992,0c-3.36339,-3.36339 -3.36339,-8.81653 0,-12.17992z" stroke-width="5"/><path d="M131.02334,77.02334c3.36339,-3.36339 8.81653,-3.36339 12.17992,0c3.36339,3.36339 3.36339,8.81652 0,12.17991c-3.36339,3.36339 -8.81653,3.36339 -12.17992,0c-3.36339,-3.36339 -3.36339,-8.81653 0,-12.17991z" stroke-width="5"/></g><g stroke="#1092f7"><path d="M147.9625,114.5c0,-11.34255 9.19495,-20.5375 20.5375,-20.5375c11.34255,0 20.5375,9.19495 20.5375,20.5375c0,11.34255 -9.19495,20.5375 -20.5375,20.5375c-11.34255,0 -20.5375,-9.19495 -20.5375,-20.5375z" stroke-width="7.5"/><path d="M204.275,114.5c0,-4.75655 3.85595,-8.6125 8.6125,-8.6125c4.75655,0 8.6125,3.85595 8.6125,8.6125c0,4.75655 -3.85595,8.6125 -8.6125,8.6125c-4.75655,0 -8.6125,-3.85595 -8.6125,-8.6125z" stroke-width="5"/><path d="M115.5,114.5c0,-4.75655 3.85595,-8.6125 8.6125,-8.6125c4.75655,0 8.6125,3.85595 8.6125,8.6125c0,4.75655 -3.85595,8.6125 -8.6125,8.6125c-4.75655,0 -8.6125,-3.85595 -8.6125,-8.6125z" stroke-width="5"/><path d="M168.5,78.725c-4.75655,0 -8.6125,-3.85595 -8.6125,-8.6125c0,-4.75655 3.85595,-8.6125 8.6125,-8.6125c4.75655,0 8.6125,3.85595 8.6125,8.6125c0,4.75655 -3.85595,8.6125 -8.6125,8.6125z" stroke-width="5"/><path d="M168.5,167.5c-4.75655,0 -8.6125,-3.85595 -8.6125,-8.6125c0,-4.75655 3.85595,-8.6125 8.6125,-8.6125c4.75655,0 8.6125,3.85595 8.6125,8.6125c0,4.75655 -3.85595,8.6125 -8.6125,8.6125z" stroke-width="5"/><path d="M193.79675,89.20326c-3.36339,-3.36339 -3.36339,-8.81653 0,-12.17991c3.36339,-3.36339 8.81653,-3.36339 12.17992,0c3.36339,3.36339 3.36339,8.81652 0,12.17991c-3.36339,3.36339 -8.81653,3.36339 -12.17992,0z" stroke-width="5"/><path d="M131.02334,151.97666c-3.36339,-3.36339 -3.36339,-8.81653 0,-12.17992c3.36339,-3.36339 8.81653,-3.36339 12.17992,0c3.36339,3.36339 3.36339,8.81653 0,12.17992c-3.36339,3.36339 -8.81653,3.36339 -12.17992,0z" stroke-width="5"/><path d="M193.79675,139.79674c3.36339,-3.36339 8.81653,-3.36339 12.17992,0c3.36339,3.36339 3.36339,8.81653 0,12.17992c-3.36339,3.36339 -8.81653,3.36339 -12.17992,0c-3.36339,-3.36339 -3.36339,-8.81653 0,-12.17992z" stroke-width="5"/><path d="M131.02334,77.02334c3.36339,-3.36339 8.81653,-3.36339 12.17992,0c3.36339,3.36339 3.36339,8.81652 0,12.17991c-3.36339,3.36339 -8.81653,3.36339 -12.17992,0c-3.36339,-3.36339 -3.36339,-8.81653 0,-12.17991z" stroke-width="5"/></g><g stroke="#1092f7"><path d="M281.9625,159c0,-11.34255 9.19495,-20.5375 20.5375,-20.5375c11.34255,0 20.5375,9.19495 20.5375,20.5375c0,11.34255 -9.19495,20.5375 -20.5375,20.5375c-11.34255,0 -20.5375,-9.19495 -20.5375,-20.5375z" stroke-width="7.5"/><path d="M338.275,159c0,-4.75655 3.85595,-8.6125 8.6125,-8.6125c4.75655,0 8.6125,3.85595 8.6125,8.6125c0,4.75655 -3.85595,8.6125 -8.6125,8.6125c-4.75655,0 -8.6125,-3.85595 -8.6125,-8.6125z" stroke-width="5"/><path d="M249.5,159c0,-4.75655 3.85595,-8.6125 8.6125,-8.6125c4.75655,0 8.6125,3.85595 8.6125,8.6125c0,4.75655 -3.85595,8.6125 -8.6125,8.6125c-4.75655,0 -8.6125,-3.85595 -8.6125,-8.6125z" stroke-width="5"/><path d="M302.5,123.225c-4.75655,0 -8.6125,-3.85595 -8.6125,-8.6125c0,-4.75655 3.85595,-8.6125 8.6125,-8.6125c4.75655,0 8.6125,3.85595 8.6125,8.6125c0,4.75655 -3.85595,8.6125 -8.6125,8.6125z" stroke-width="5"/><path d="M302.5,212c-4.75655,0 -8.6125,-3.85595 -8.6125,-8.6125c0,-4.75655 3.85595,-8.6125 8.6125,-8.6125c4.75655,0 8.6125,3.85595 8.6125,8.6125c0,4.75655 -3.85595,8.6125 -8.6125,8.6125z" stroke-width="5"/><path d="M327.79675,133.70326c-3.36339,-3.36339 -3.36339,-8.81653 0,-12.17991c3.36339,-3.36339 8.81653,-3.36339 12.17992,0c3.36339,3.36339 3.36339,8.81652 0,12.17991c-3.36339,3.36339 -8.81653,3.36339 -12.17992,0z" stroke-width="5"/><path d="M265.02334,196.47666c-3.36339,-3.36339 -3.36339,-8.81653 0,-12.17992c3.36339,-3.36339 8.81653,-3.36339 12.17992,0c3.36339,3.36339 3.36339,8.81653 0,12.17992c-3.36339,3.36339 -8.81653,3.36339 -12.17992,0z" stroke-width="5"/><path d="M327.79675,184.29675c3.36339,-3.36339 8.81653,-3.36339 12.17992,0c3.36339,3.36339 3.36339,8.81653 0,12.17992c-3.36339,3.36339 -8.81653,3.36339 -12.17992,0c-3.36339,-3.36339 -3.36339,-8.81653 0,-12.17992z" stroke-width="5"/><path d="M265.02334,121.52334c3.36339,-3.36339 8.81653,-3.36339 12.17992,0c3.36339,3.36339 3.36339,8.81652 0,12.17991c-3.36339,3.36339 -8.81653,3.36339 -12.17992,0c-3.36339,-3.36339 -3.36339,-8.81653 0,-12.17991z" stroke-width="5"/></g><g stroke="#1092f7"><path d="M179.9625,241.5c0,-11.34255 9.19495,-20.5375 20.5375,-20.5375c11.34255,0 20.5375,9.19495 20.5375,20.5375c0,11.34255 -9.19495,20.5375 -20.5375,20.5375c-11.34255,0 -20.5375,-9.19495 -20.5375,-20.5375z" stroke-width="7.5"/><path d="M236.275,241.5c0,-4.75655 3.85595,-8.6125 8.6125,-8.6125c4.75655,0 8.6125,3.85595 8.6125,8.6125c0,4.75655 -3.85595,8.6125 -8.6125,8.6125c-4.75655,0 -8.6125,-3.85595 -8.6125,-8.6125z" stroke-width="5"/><path d="M147.5,241.5c0,-4.75655 3.85595,-8.6125 8.6125,-8.6125c4.75655,0 8.6125,3.85595 8.6125,8.6125c0,4.75655 -3.85595,8.6125 -8.6125,8.6125c-4.75655,0 -8.6125,-3.85595 -8.6125,-8.6125z" stroke-width="5"/><path d="M200.5,205.725c-4.75655,0 -8.6125,-3.85595 -8.6125,-8.6125c0,-4.75655 3.85595,-8.6125 8.6125,-8.6125c4.75655,0 8.6125,3.85595 8.6125,8.6125c0,4.75655 -3.85595,8.6125 -8.6125,8.6125z" stroke-width="5"/><path d="M200.5,294.5c-4.75655,0 -8.6125,-3.85595 -8.6125,-8.6125c0,-4.75655 3.85595,-8.6125 8.6125,-8.6125c4.75655,0 8.6125,3.85595 8.6125,8.6125c0,4.75655 -3.85595,8.6125 -8.6125,8.6125z" stroke-width="5"/><path d="M225.79675,216.20326c-3.36339,-3.36339 -3.36339,-8.81653 0,-12.17991c3.36339,-3.36339 8.81653,-3.36339 12.17992,0c3.36339,3.36339 3.36339,8.81652 0,12.17991c-3.36339,3.36339 -8.81653,3.36339 -12.17992,0z" stroke-width="5"/><path d="M163.02334,278.97666c-3.36339,-3.36339 -3.36339,-8.81653 0,-12.17992c3.36339,-3.36339 8.81653,-3.36339 12.17992,0c3.36339,3.36339 3.36339,8.81653 0,12.17992c-3.36339,3.36339 -8.81653,3.36339 -12.17992,0z" stroke-width="5"/><path d="M225.79675,266.79675c3.36339,-3.36339 8.81653,-3.36339 12.17992,0c3.36339,3.36339 3.36339,8.81653 0,12.17992c-3.36339,3.36339 -8.81653,3.36339 -12.17992,0c-3.36339,-3.36339 -3.36339,-8.81653 0,-12.17992z" stroke-width="5"/><path d="M163.02334,204.02334c3.36339,-3.36339 8.81653,-3.36339 12.17992,0c3.36339,3.36339 3.36339,8.81652 0,12.17991c-3.36339,3.36339 -8.81653,3.36339 -12.17992,0c-3.36339,-3.36339 -3.36339,-8.81653 0,-12.17991z" stroke-width="5"/></g></g></g></svg>