<svg version="1.1" xmlns="http://www.w3.org/2000/svg" xmlns:xlink="http://www.w3.org/1999/xlink" width="319.7293" height="319.7293" viewBox="0,0,319.7293,319.7293"><g transform="translate(-80.13535,-20.13535)"><g data-paper-data="{&quot;isPaintingLayer&quot;:true}" fill="none" fill-rule="nonzero" stroke-linejoin="miter" stroke-miterlimit="10" stroke-dasharray="" stroke-dashoffset="0" style="mix-blend-mode: normal"><path d="M80.13535,339.86465v-319.7293h319.7293v319.7293z" stroke="#ff0000" stroke-width="0" stroke-linecap="butt"/><path d="M145.9875,271.75c0,-18.99365 0,-92.89074 0,-145.5c0,-0.78992 57.40746,-55.25 58.2625,-55.25c44.0353,0 99.41451,0 114.625,0c7.78738,0 15.1375,5.71803 15.1375,14.5c0,42.38673 0,167.2979 0,189.75c0,6.68468 -6.80365,13.75 -14.1375,13.75c-20.31222,0 -116.7405,0 -156.5,0c-10.58636,0 -17.3875,-8.35688 -17.3875,-17.25z" stroke="#1092f7" stroke-width="8.5" stroke-linecap="butt"/><path d="M148.75,127.75c0,0 35.65684,0 45.5,0c4.7285,0 10.5,-7.07485 10.5,-12.5c0,-10.12048 0,-43.5 0,-43.5" stroke="#1092f7" stroke-width="8.5" stroke-linecap="round"/><path d="M180.25,189.5h119.5" stroke="#1092f7" stroke-width="8.5" stroke-linecap="round"/><path d="M180.25,219.5h119.5" stroke="#1092f7" stroke-width="8.5" stroke-linecap="round"/><path d="M180.25,159.5h119.5" stroke="#1092f7" stroke-width="8.5" stroke-linecap="round"/><path d="M180.25,249.5h119.5" stroke="#1092f7" stroke-width="8.5" stroke-linecap="round"/></g></g></svg>