<svg version="1.1" xmlns="http://www.w3.org/2000/svg" xmlns:xlink="http://www.w3.org/1999/xlink" width="319.7293" height="319.7293" viewBox="0,0,319.7293,319.7293"><g transform="translate(-80.13535,-20.13535)"><g data-paper-data="{&quot;isPaintingLayer&quot;:true}" fill-rule="nonzero" stroke-linejoin="miter" stroke-miterlimit="10" stroke-dasharray="" stroke-dashoffset="0" style="mix-blend-mode: normal"><path d="M80.13535,180c0,-88.29081 71.57384,-159.86465 159.86465,-159.86465c88.29081,0 159.86465,71.57384 159.86465,159.86465c0,88.29081 -71.57384,159.86465 -159.86465,159.86465c-88.29081,0 -159.86465,-71.57384 -159.86465,-159.86465z" fill="none" stroke="none" stroke-width="0" stroke-linecap="butt"/><path d="M227.78114,180h89.96886" fill="none" stroke="#ababab" stroke-width="30" stroke-linecap="round"/><path d="M162.25,180c0,-10.73516 8.70255,-19.43772 19.43772,-19.43772c10.73516,0 19.43772,8.70255 19.43772,19.43772c0,10.73516 -8.70255,19.43772 -19.43772,19.43772c-10.73516,0 -19.43772,-8.70255 -19.43772,-19.43772z" fill="#ababab" stroke="none" stroke-width="0" stroke-linecap="butt"/><path d="M227.78114,234.9827h89.96886" fill="none" stroke="#ababab" stroke-width="30" stroke-linecap="round"/><path d="M162.25,234.9827c0,-10.73516 8.70255,-19.43772 19.43772,-19.43772c10.73516,0 19.43772,8.70255 19.43772,19.43772c0,10.73516 -8.70255,19.43772 -19.43772,19.43772c-10.73516,0 -19.43772,-8.70255 -19.43772,-19.43772z" fill="#ababab" stroke="none" stroke-width="0" stroke-linecap="butt"/><path d="M227.78114,125.0173h89.96886" fill="none" stroke="#ababab" stroke-width="30" stroke-linecap="round"/><path d="M162.25,125.0173c0,-10.73516 8.70255,-19.43772 19.43772,-19.43772c10.73516,0 19.43772,8.70255 19.43772,19.43772c0,10.73516 -8.70255,19.43772 -19.43772,19.43772c-10.73516,0 -19.43772,-8.70255 -19.43772,-19.43772z" fill="#ababab" stroke="none" stroke-width="0" stroke-linecap="butt"/></g></g></svg>